<svg width="468" height="260" viewBox="0 0 468 260" fill="none" xmlns="http://www.w3.org/2000/svg">
<g clip-path="url(#clip0_1102_91792)">
<path fill-rule="evenodd" clip-rule="evenodd" d="M438.622 21.4943L335.856 96.5971V73.9245L339.178 71.4831L345.099 67.1467V60.1241V32.8704V3.19238L320.063 21.4659L39.5065 226.213L4.05273 252.084H49.0284H87.6621H93.0252L97.2434 248.988L194.955 177.294V208.452V237.612V252.084H210.457H313.614H320.36H329.105H335.856H439.02H454.504V237.612V209.174V73.7936L457.731 71.4148L463.652 67.0613V60.0387V32.8704V3.19238L438.622 21.4943Z" fill="#005BA7"/>
<path fill-rule="evenodd" clip-rule="evenodd" d="M462.371 5.8161V69.6907L456.485 74.0386L453.276 76.4174V254.713H210.748L197.108 254.258L195.346 211.075V179.918L98.2401 251.612L94.0516 254.707H5.63086L40.8592 228.831L319.672 24.0896L347.567 5.28684V69.2468L341.682 73.5833L338.378 76.0247L335.364 99.2208L437.495 24.118L462.371 5.8161ZM347.567 0C346.333 0 345.105 0.38129 344.091 1.12111L316.201 19.9181L37.3945 224.665L2.16617 250.542C0.273644 251.936 -0.473875 254.298 0.30924 256.432C1.08642 258.566 3.22812 260 5.63679 260H94.0516C95.3153 260 96.5434 259.602 97.5341 258.868L101.729 255.772L189.716 190.81V254.713C189.716 257.633 192.238 260 195.346 260H453.276C456.391 260 458.912 257.633 458.912 254.713V78.984L459.98 78.1929L465.859 73.8508C467.218 72.8492 468.007 71.3126 468.007 69.6907V5.8161C468.007 3.79014 466.779 1.94629 464.839 1.05851C464.062 0.69998 463.207 0.523563 462.377 0.523563C461.143 0.523563 459.915 0.904853 458.906 1.65036L434.03 19.9523L344.02 87.8333V78.5913L345.176 77.7377L351.05 73.4069C352.408 72.4053 353.203 70.8687 353.203 69.2468V5.29253C353.203 3.26658 351.975 1.42272 350.035 0.534944C349.258 0.176418 348.41 0 347.573 0L347.567 0Z" fill="#005BA7"/>
<path fill-rule="evenodd" clip-rule="evenodd" d="M202.661 246.126V163.693L90.2902 246.126H26.502L337.345 19.2979V64.8876L328.066 71.6655V246.126H202.661Z" fill="#E1081A"/>
<path fill-rule="evenodd" clip-rule="evenodd" d="M331.779 35.3519V62.6056L322.524 69.372V240.099H212.615V150.012L89.8201 240.099H51.1865L331.779 35.3519ZM347.257 5.67383L322.215 23.9473L41.6705 228.694L6.22266 254.565H95.1833L99.4014 251.469L197.119 179.775V254.565H338.02V76.406L341.342 73.9703L347.263 69.6281V5.67383H347.257Z" fill="white"/>
<path fill-rule="evenodd" clip-rule="evenodd" d="M331.833 35.3232L51.2402 240.065H89.868L212.669 149.978V210.904V240.065H322.572V210.904V69.3377L331.833 62.5769V35.3232Z" fill="#D11D1D"/>
<path fill-rule="evenodd" clip-rule="evenodd" d="M296.575 239.354V218.212H323.515V213.591H264.177V191.954H323.515V187.362H296.575V165.685H323.515V161.07H264.177V139.438H323.515V134.806H296.575V113.164H323.515V108.548H264.177V86.883H322.56V82.2791H296.581V61.0293L291.651 64.6373V82.2791H267.463L259.235 88.2887V108.548H231.446L225.134 113.164H226.83V134.806H195.476L189.128 139.438H194.444V161.07H159.465L153.152 165.685H162.04V187.111L166.981 183.492V165.685H191.222L199.374 159.732V139.438H259.229V161.07H213.606V165.685H226.83V187.362H213.606V191.954H259.229V213.591H213.606V218.212H226.83V239.354H231.79V218.212H291.651V239.354H296.581H296.575ZM231.784 134.812V113.169H291.645V134.812H231.784ZM259.229 187.362H231.784V165.685H291.645V187.362H259.229Z" fill="#102757"/>
<path fill-rule="evenodd" clip-rule="evenodd" d="M100.933 232.04V219.207H118.411L124.688 214.586H100.933H95.9796H86.2618L79.9316 219.207H95.9796V235.677L100.933 232.04Z" fill="#102757"/>
<path fill-rule="evenodd" clip-rule="evenodd" d="M130.336 191.482V210.438L135.289 206.79V191.482H156.143L162.437 186.889H135.272H130.336H124.189L117.883 191.482H130.336Z" fill="#102757"/>
<path fill-rule="evenodd" clip-rule="evenodd" d="M324.044 246.126V163.653L302.152 179.872V133.611L458.615 19.2979V64.8136L449.449 71.546V246.126H324.044Z" fill="white"/>
<path fill-rule="evenodd" clip-rule="evenodd" d="M448.125 35.403V62.5713L438.976 69.2866V240.144H329.062V149.932L307.182 166.163V138.414L448.125 35.403ZM463.615 5.71924L438.585 24.0155L297.648 127.026L291.68 131.351V196.091L313.577 179.878V240.139L313.642 256.955L454.686 255.863L454.467 240.139V76.3262L457.694 73.9417L463.615 69.5939V5.71924Z" fill="#005BA7"/>
</g>
<defs>
<clipPath id="clip0_1102_91792">
<rect width="468" height="260" fill="white"/>
</clipPath>
</defs>
</svg>
