<svg xmlns="http://www.w3.org/2000/svg" viewBox="0 0 1600 1000" role="img" aria-labelledby="title desc">
  <title id="title">Замер защитного чехла для оборудования</title>
  <desc id="desc">Промышленное оборудование, мягкая защитная ткань, рулетка и техническая схема в светлой мастерской.</desc>
  <defs>
    <linearGradient id="bg" x1="0" y1="0" x2="1" y2="1">
      <stop offset="0" stop-color="#f8f4ec"/>
      <stop offset=".55" stop-color="#e9eef0"/>
      <stop offset="1" stop-color="#d7b86d"/>
    </linearGradient>
    <linearGradient id="cloth" x1="0" y1="0" x2="1" y2="1">
      <stop offset="0" stop-color="#586270"/>
      <stop offset=".5" stop-color="#2f3742"/>
      <stop offset="1" stop-color="#111820"/>
    </linearGradient>
    <linearGradient id="gold" x1="0" y1="0" x2="1" y2="0">
      <stop offset="0" stop-color="#d6a32a"/>
      <stop offset="1" stop-color="#f1d58a"/>
    </linearGradient>
    <filter id="shadow" x="-20%" y="-20%" width="140%" height="150%">
      <feDropShadow dx="0" dy="24" stdDeviation="28" flood-color="#1b1711" flood-opacity=".22"/>
    </filter>
  </defs>
  <rect width="1600" height="1000" fill="url(#bg)"/>
  <path d="M0 760 C260 650 430 805 690 720 C940 638 1088 500 1600 560 L1600 1000 L0 1000 Z" fill="#fffaf0" opacity=".7"/>
  <g opacity=".25" stroke="#7a6a45" stroke-width="2">
    <path d="M180 184h360v250H180z"/>
    <path d="M220 225h280M220 280h190M220 335h240M220 390h150"/>
    <path d="M1110 150h290v190h-290zM1145 196h210M1145 245h130M1145 294h170"/>
  </g>
  <g filter="url(#shadow)">
    <path d="M518 346 C575 306 867 292 930 342 C981 383 1002 635 957 696 C898 777 536 766 474 699 C420 641 456 389 518 346 Z" fill="url(#cloth)"/>
    <path d="M544 384 C608 348 841 348 902 386 C932 525 934 612 905 664 C835 705 606 709 527 666 C501 588 508 474 544 384 Z" fill="#46515d" opacity=".82"/>
    <path d="M603 377 C618 486 616 587 594 680" fill="none" stroke="#798492" stroke-width="10" opacity=".35"/>
    <path d="M832 366 C850 476 852 589 834 684" fill="none" stroke="#141a22" stroke-width="12" opacity=".5"/>
    <path d="M482 592 C584 630 817 639 964 598" fill="none" stroke="#f2d68d" stroke-width="8" opacity=".85"/>
  </g>
  <g transform="translate(226 610) rotate(-8)" filter="url(#shadow)">
    <rect x="0" y="0" width="520" height="52" rx="12" fill="url(#gold)"/>
    <g stroke="#2e281c" stroke-width="4" opacity=".65">
      <path d="M36 0v24M82 0v14M128 0v24M174 0v14M220 0v24M266 0v14M312 0v24M358 0v14M404 0v24M450 0v14M496 0v24"/>
    </g>
  </g>
  <g transform="translate(1030 562)" filter="url(#shadow)">
    <path d="M0 0h310l82 92v220H0z" fill="#fffdf8"/>
    <path d="M310 0v92h82" fill="#e8dfcd"/>
    <g fill="none" stroke="#28313a" stroke-width="8" opacity=".78">
      <path d="M70 220h222M110 120h140M110 120v64M250 120v64M110 184h140"/>
      <path d="M70 252h168"/>
    </g>
    <circle cx="72" cy="122" r="20" fill="#d6a32a"/>
  </g>
</svg>
