<svg version="1.1" id="Layer_1" xmlns="http://www.w3.org/2000/svg" xmlns:xlink="http://www.w3.org/1999/xlink" x="0px" y="0px" viewBox="0 0 291.6 70.9" style="enable-background:new 0 0 291.6 70.9;" xml:space="preserve">
 <style type="text/css">
  .st0{fill-rule:evenodd;clip-rule:evenodd;fill:#231F20;}
	.st1{clip-path:url(#SVGID_2_);fill:url(#SVGID_3_);}
	.st2{clip-path:url(#SVGID_5_);fill:url(#SVGID_6_);}
	.st3{clip-path:url(#SVGID_8_);fill:url(#SVGID_9_);}
	.st4{clip-path:url(#SVGID_11_);fill:url(#SVGID_12_);}
	.st5{clip-path:url(#SVGID_14_);fill:url(#SVGID_15_);}
	.st6{clip-path:url(#SVGID_17_);fill:url(#SVGID_18_);}
	.st7{clip-path:url(#SVGID_20_);fill:url(#SVGID_21_);}
	.st8{fill:#00377C;}
	.st9{fill:#F37920;}
	.st10{fill-rule:evenodd;clip-rule:evenodd;fill:#00529B;}
	.st11{fill:#00529B;}
 </style>
 <g>
  <g>
   <path class="st0" d="M252.6,0.9c-4.1,4.3-8.5,4.8-12.4,5.3l-2,0.3c-2.1,0.2-3.9,0.4-6,1.8c-2,1.3-4.4,4.1-6,6.3
			c-6.3,1.2-11.6,3.3-16.1,5.9c-7.9,4.7-13.4,10.9-17.5,15.4l-4,4.9l0.7-0.2c7.3-7.1,14.2-12.2,20.7-15.3c4.1-2,8-3.2,11.9-3.6h0.1
			l4.2-5.8c1.1-1.1,2.7-1.5,5-1.7l4.2-0.3l3.5-0.2l1.2-0.1c2.8-0.4,5.1-1.1,8.5-5.8l4.4-6.4L252.6,0.9z M223.1,18.9
			c0,0-1.2,1.7-1.4,1.9c-3.7,0.5-7.6,1.7-11.6,3.5c-5,2.4-10.2,5.9-15.6,10.5c3.8-4.3,8.7-9.5,15.6-13.5c4.3-2.6,9.4-4.7,15.6-5.9
			C225.3,15.9,223.1,18.9,223.1,18.9 M248.1,7.3c-3.1,4.5-5.3,5.1-7.9,5.4l-1.1,0.1l-3.6,0.2l-4.2,0.3c-1.7,0.2-3,0.5-4.1,1.2
			c1.4-1.8,3.5-4.5,5.4-5.8c1.9-1.3,4.2-1.4,5.6-1.6l0.9-0.1h0.1l1.2-0.1c3.3-0.4,7.1-1.1,10.7-3.8C249.7,5.1,248.1,7.3,248.1,7.3">
   </path>
  </g>
  <g>
   <defs>
    <path id="SVGID_1_" d="M189.1,40.3l-2.6,2.8c13.1-10,20.6-10.9,31.4-10.8c1,0.1,1.9,0.1,2.6-1.2l3.2-4.7
				C208.6,26.7,201.9,30.5,189.1,40.3">
    </path>
   </defs>
   <clipPath id="SVGID_2_">
    <use href="#SVGID_1_" style="overflow:visible;">
    </use>
   </clipPath>
   <linearGradient id="SVGID_3_" gradientUnits="userSpaceOnUse" x1="-134.9486" y1="417.5148" x2="-132.98" y2="417.5148" gradientTransform="matrix(7.9168 7.816 7.816 -7.9168 -1999.5104 4385.2998)">
    <stop offset="0" style="stop-color:#C3161C">
    </stop>
    <stop offset="0.3" style="stop-color:#EC1C24">
    </stop>
    <stop offset="0.3398" style="stop-color:#ED2F36">
    </stop>
    <stop offset="0.4204" style="stop-color:#F15F65">
    </stop>
    <stop offset="0.5292" style="stop-color:#F7AAAC">
    </stop>
    <stop offset="0.5533" style="stop-color:#F58F92">
    </stop>
    <stop offset="0.5959" style="stop-color:#F2666B">
    </stop>
    <stop offset="0.6375" style="stop-color:#EF464C">
    </stop>
    <stop offset="0.6774" style="stop-color:#ED2F36">
    </stop>
    <stop offset="0.7149" style="stop-color:#EC2129">
    </stop>
    <stop offset="0.7475" style="stop-color:#EC1C24">
    </stop>
    <stop offset="1" style="stop-color:#C3161C">
    </stop>
   </linearGradient>
   <polygon class="st1" points="204.9,7.9 232.1,34.7 205.4,61.7 178.2,34.9 		">
   </polygon>
  </g>
  <g>
   <defs>
    <path id="SVGID_4_" d="M189.8,39.5C189.8,39.5,189.8,39.6,189.8,39.5c12.4-11.8,23-17.2,32.2-18.4c0.9-1.1,3.7-5,4.5-6.3
				C205.8,18.5,196.3,32.8,189.8,39.5">
    </path>
   </defs>
   <clipPath id="SVGID_5_">
    <use xlink:href="#SVGID_4_" style="overflow:visible;">
    </use>
   </clipPath>
   <linearGradient id="SVGID_6_" gradientUnits="userSpaceOnUse" x1="-150.8216" y1="416.3418" x2="-148.853" y2="416.3418" gradientTransform="matrix(19.0961 13.8741 13.8741 -19.0961 -2706.793 10056.6582)">
    <stop offset="0" style="stop-color:#FFFFFF">
    </stop>
    <stop offset="0.34" style="stop-color:#FFFFFF">
    </stop>
    <stop offset="0.54" style="stop-color:#FFFFFF">
    </stop>
    <stop offset="0.91" style="stop-color:#C6D2EB">
    </stop>
    <stop offset="1" style="stop-color:#C6D2EB">
    </stop>
   </linearGradient>
   <polygon class="st2" points="202.5,-2.6 238.3,23.4 213.8,57 178,31 		">
   </polygon>
  </g>
  <g>
   <defs>
    <path id="SVGID_7_" d="M189.7,39.6c-0.2,0.2-0.6,0.7-1,1.1c-0.1,0.1-0.3,0.4-0.4,0.4c2.4-2,7.3-5.9,11.8-8.4
				c4.5-2.5,9.9-4.6,17.6-5.7c0.8-0.9,3.1-4.1,4.1-5.8C207.7,23.2,198.3,31.6,189.7,39.6">
    </path>
   </defs>
   <clipPath id="SVGID_8_">
    <use xlink:href="#SVGID_7_" style="overflow:visible;">
    </use>
   </clipPath>
   <linearGradient id="SVGID_9_" gradientUnits="userSpaceOnUse" x1="-142.3149" y1="417.961" x2="-140.3463" y2="417.961" gradientTransform="matrix(10.5741 10.4384 10.4384 -10.5741 -2661.9744 5927.123)">
    <stop offset="0" style="stop-color:#00529B">
    </stop>
    <stop offset="0.1296" style="stop-color:#00529B">
    </stop>
    <stop offset="0.1757" style="stop-color:#155DA3">
    </stop>
    <stop offset="0.3093" style="stop-color:#4D7CB9">
    </stop>
    <stop offset="0.4088" style="stop-color:#708FC7">
    </stop>
    <stop offset="0.4622" style="stop-color:#7D96CC">
    </stop>
    <stop offset="0.4725" style="stop-color:#7491C9">
    </stop>
    <stop offset="0.5504" style="stop-color:#366FB0">
    </stop>
    <stop offset="0.6074" style="stop-color:#0F5AA1">
    </stop>
    <stop offset="0.6371" style="stop-color:#00529B">
    </stop>
    <stop offset="0.9166" style="stop-color:#00529B">
    </stop>
    <stop offset="1" style="stop-color:#00529B">
    </stop>
   </linearGradient>
   <polygon class="st3" points="205,4.3 232,31 205.4,57.9 178.4,31.2 		">
   </polygon>
  </g>
  <g>
   <defs>
    <path id="SVGID_10_" d="M217,28c-0.4,1.2,0.2,0.6,2.1,1.8c1.5,1,1.2,1.4,1.1,1.9c1.4-2.2,4.1-5.3,4.1-5.3
				c-0.7-0.2-1.4-0.3-2.1-0.3C219.7,26,217.2,27.2,217,28">
    </path>
   </defs>
   <clipPath id="SVGID_11_">
    <use xlink:href="#SVGID_10_" style="overflow:visible;">
    </use>
   </clipPath>
   <linearGradient id="SVGID_12_" gradientUnits="userSpaceOnUse" x1="-100.7835" y1="404.0284" x2="-98.8149" y2="404.0284" gradientTransform="matrix(4.2764 2.7771 2.7771 -4.2764 -474.8797 2033.7354)">
    <stop offset="0" style="stop-color:#C3161C">
    </stop>
    <stop offset="0.4508" style="stop-color:#EC1C24">
    </stop>
    <stop offset="1" style="stop-color:#F7AAAC">
    </stop>
   </linearGradient>
   <polygon class="st4" points="218.9,22.5 226.9,27.7 222,35.2 214,30 		">
   </polygon>
  </g>
  <g>
   <defs>
    <path id="SVGID_13_" d="M231.5,13.5c-3,0.3-4.8,1.2-6,2.7l-4,5.8c1-0.9,3.6-1.3,6.5-1.3h0.4h0.3c0.4,0,0.9-0.1,1.3-0.1
				c4.2-0.1,9.9-0.7,13.3-4.9l5-7.2l0.5-0.8C244.4,13.6,234.6,12.9,231.5,13.5">
    </path>
   </defs>
   <clipPath id="SVGID_14_">
    <use xlink:href="#SVGID_13_" style="overflow:visible;">
    </use>
   </clipPath>
   <linearGradient id="SVGID_15_" gradientUnits="userSpaceOnUse" x1="-143.0222" y1="417.2006" x2="-141.0536" y2="417.2006" gradientTransform="matrix(11.9134 9.9047 9.9047 -11.9134 -2204.6208 6392.1899)">
    <stop offset="0" style="stop-color:#C6D5ED">
    </stop>
    <stop offset="7.302860e-02" style="stop-color:#C6D5ED">
    </stop>
    <stop offset="0.1186" style="stop-color:#AEC5E3">
    </stop>
    <stop offset="0.2151" style="stop-color:#709CC9">
    </stop>
    <stop offset="0.3537" style="stop-color:#0D5AA0">
    </stop>
    <stop offset="0.3708" style="stop-color:#00529B">
    </stop>
    <stop offset="0.43" style="stop-color:#08579E">
    </stop>
    <stop offset="0.5227" style="stop-color:#1E66A8">
    </stop>
    <stop offset="0.6371" style="stop-color:#437EB7">
    </stop>
    <stop offset="0.769" style="stop-color:#75A0CC">
    </stop>
    <stop offset="0.9138" style="stop-color:#B5CAE6">
    </stop>
    <stop offset="0.9494" style="stop-color:#C6D5ED">
    </stop>
    <stop offset="1" style="stop-color:#C6D5ED">
    </stop>
   </linearGradient>
   <polygon class="st5" points="232.6,-5.9 255.9,13.5 237.6,35.4 214.4,16.1 		">
   </polygon>
  </g>
  <g>
   <defs>
    <path id="SVGID_16_" d="M239,6.8c-1.3,0.2-4.2,0.1-6.5,1.7c-2.5,1.6-5.5,5.5-6.9,7.5c1.3-1.5,3.2-2,5.8-2.3
				c2.6-0.3,6.2-0.2,8.9-0.6c2.6-0.3,4.9-0.9,8.2-5.5l4.5-6.4C248.3,5.9,243.3,6.1,239,6.8">
    </path>
   </defs>
   <clipPath id="SVGID_17_">
    <use xlink:href="#SVGID_16_" style="overflow:visible;">
    </use>
   </clipPath>
   <linearGradient id="SVGID_18_" gradientUnits="userSpaceOnUse" x1="-141.5585" y1="417.3316" x2="-139.5899" y2="417.3316" gradientTransform="matrix(11.1422 9.2636 9.2636 -11.1422 -2060.0039 5961.1338)">
    <stop offset="0" style="stop-color:#FFFFFF">
    </stop>
    <stop offset="0.1742" style="stop-color:#FFFFFF">
    </stop>
    <stop offset="0.2392" style="stop-color:#F9FAFD">
    </stop>
    <stop offset="0.3268" style="stop-color:#E8ECF7">
    </stop>
    <stop offset="0.3865" style="stop-color:#D8DFF1">
    </stop>
    <stop offset="0.494" style="stop-color:#EDF0F8">
    </stop>
    <stop offset="0.6032" style="stop-color:#FAFBFD">
    </stop>
    <stop offset="0.7" style="stop-color:#FFFFFF">
    </stop>
    <stop offset="1" style="stop-color:#FFFFFF">
    </stop>
   </linearGradient>
   <polygon class="st6" points="236.8,-12.3 260.2,7.2 241.7,29.4 218.3,9.9 		">
   </polygon>
  </g>
  <g>
   <defs>
    <path id="SVGID_19_" d="M233.8,19.9c-3.1,0.4-6.7,0.5-7.7,0.6c-1.7,0-4.1,0.6-4.7,1.5c-2,2.6-3.9,4.9-4.4,6
				c1.2-1.2,5.2-1.1,10-1.3c4.8-0.2,9.6-2.5,13.5-7l2.9-4.3C241.5,18,238,19.2,233.8,19.9">
    </path>
   </defs>
   <clipPath id="SVGID_20_">
    <use xlink:href="#SVGID_19_" style="overflow:visible;">
    </use>
   </clipPath>
   <linearGradient id="SVGID_21_" gradientUnits="userSpaceOnUse" x1="-139.0473" y1="416.5595" x2="-137.0787" y2="416.5595" gradientTransform="matrix(10.0512 8.3565 8.3565 -10.0512 -1863.3484 5362.0942)">
    <stop offset="0" style="stop-color:#F7AAAC">
    </stop>
    <stop offset="5.618290e-02" style="stop-color:#F7AAAC">
    </stop>
    <stop offset="8.286826e-02" style="stop-color:#F59396">
    </stop>
    <stop offset="0.1468" style="stop-color:#F16065">
    </stop>
    <stop offset="0.2026" style="stop-color:#EE3B42">
    </stop>
    <stop offset="0.2475" style="stop-color:#ED242C">
    </stop>
    <stop offset="0.2761" style="stop-color:#EC1C24">
    </stop>
    <stop offset="0.4231" style="stop-color:#D0181E">
    </stop>
    <stop offset="0.5169" style="stop-color:#C3161C">
    </stop>
    <stop offset="0.585" style="stop-color:#D0181E">
    </stop>
    <stop offset="0.6919" style="stop-color:#EC1C24">
    </stop>
    <stop offset="0.8914" style="stop-color:#F6A1A0">
    </stop>
    <stop offset="1" style="stop-color:#F7AAAC">
    </stop>
   </linearGradient>
   <polygon class="st7" points="227.8,2.4 249.6,20.5 232.6,40.9 210.8,22.8 		">
   </polygon>
  </g>
  <g>
   <path class="st8" d="M285.9,22.9L285.9,22.9c2.6,2.7,4.4,6.3,4.7,10.4c0.6,9-6.1,16.8-15.1,17.4c-4.2,0.3-8.2-1-11.3-3.5l0,0
			c3.2,3,7.6,4.7,12.3,4.3c9-0.6,15.7-8.4,15.1-17.4C291.3,29.6,289.1,25.7,285.9,22.9">
   </path>
   <path class="st8" d="M257,41.5c-0.5,0.3-0.6,0.7-0.4,1.4c0.2,0.6,0.6,0.9,1,0.7c0.3-0.1,0.4-0.4,0.2-1.1l-0.1-0.3
			c-0.1-0.7-0.2-1-0.1-1.3c0.1-0.3,0.3-0.6,0.6-0.7c0.7-0.3,1.4,0.2,1.8,1.2c0.4,1.1,0.2,2-0.7,2.3l-0.2-0.5
			c0.6-0.3,0.8-0.8,0.4-1.6c-0.3-0.7-0.7-1-1.1-0.8c-0.4,0.1-0.4,0.5-0.3,1.2l0.1,0.3l0.1,0.3c0.1,0.6,0.1,0.8,0.1,1
			c-0.1,0.3-0.3,0.5-0.6,0.6c-0.7,0.3-1.4-0.1-1.7-1.1c-0.4-1-0.2-1.8,0.6-2.1L257,41.5z">
   </path>
   <polygon class="st8" points="256.6,35.6 259.1,33.5 259.1,34.3 257,36 257.7,36.7 259.1,36.7 259.1,37.3 254.9,37.4 254.9,36.8 
			256.6,36.8 256.8,36.8 257,36.8 256.9,36.6 256.7,36.5 254.9,34.5 254.9,33.7 		">
   </polygon>
   <path class="st8" d="M258.4,29.1l1.6,0.6l-0.2,0.6l-1.6-0.6l-2.9,0.9l0.2-0.7l1.8-0.5l0.2-0.1c0.1,0,0.1,0,0.3-0.1
			c-0.1-0.2-0.2-0.2-0.3-0.4l-1.1-1.5l0.2-0.7L258.4,29.1z">
   </path>
   <polygon class="st8" points="261.3,21.3 260.4,22.4 263,24.6 262.4,25.4 259.8,23.2 258.9,24.3 258.3,23.8 260.7,20.9 		">
   </polygon>
   <polygon class="st8" points="267,17.4 264.8,18.6 265.3,19.4 267.2,18.2 267.6,18.9 265.7,20 266.2,20.9 268.3,19.6 268.7,20.3 
			265.7,22.1 263.6,18.4 266.6,16.7 		">
   </polygon>
   <path class="st8" d="M275.1,19l-1.1,0.1l-0.5-0.9l-1.7,0.3l-0.2,1l-1,0.3l1.1-4.6l1-0.2L275.1,19z M272.7,16.8
			c-0.2-0.4-0.3-0.6-0.5-0.9c0,0.3-0.1,0.5-0.2,1l-0.2,0.8l1.2-0.2L272.7,16.8z">
   </path>
   <path class="st8" d="M281.8,20.3L281,20l0.3-1.3c0-0.1,0.1-0.3,0.2-0.6c0.1-0.3,0.1-0.5,0.2-0.6c0.1-0.2,0.1-0.3,0.2-0.5l0.1-0.3
			c-0.2,0.4-0.3,0.6-0.6,0.9c-0.1,0.2-0.2,0.3-0.3,0.4l-1.2,1.7l-0.8-0.2l-0.2-2c0-0.1,0-0.2,0-0.5c0-0.3,0-0.5,0-0.6
			c0-0.1,0-0.3,0-0.5l-0.1,0.5c-0.1,0.6-0.2,0.8-0.3,1.5l-0.4,1.4l-0.9-0.1l1.1-4.1l1.4,0.3l0.2,1.9c0.1,0.5,0.1,0.8,0,1.4
			c0.2-0.3,0.2-0.4,0.4-0.7c0.1-0.2,0.2-0.4,0.3-0.5l1.1-1.6l1.3,0.5L281.8,20.3z">
   </path>
   <path class="st8" d="M273.8,28.4c-0.5,0.4-1.5,1.4-2.5,2.3l-1.1,1.1c-0.9-0.2-1.8-0.2-2.7-0.2c-2,0-3.9,0.6-4.8,1.4
			c-0.3,0.3-0.5,0.7-0.5,1.1c0,1,1.2,1.5,1.5,1.6c1.8,0.7,3.3,0.5,4.9-0.6c0.9-0.6,1.9-1.6,2.8-2.4c0.6,0.1,1.4,0.3,2.2,0.6l0.7,0.2
			c-0.9,0.9-1.9,1.9-2.8,2.7l-0.1,0.1c-1.2,1.1-2.1,1.9-3.5,2.2c-0.9,0.2-1.6,0-1.8-0.1c0,0,0,0,0,0c0.8,0.6,1.5,1,2.7,0.9
			c1.2-0.1,2.5-0.8,3.9-2.1l1.9-1.8l1.3-1.3c0,0,2.6,0.8,2.6,0.8c0,0,0,0,0,0c0,0-1.6,1.6-1.6,1.6l-1.4,1.4
			c-1.4,1.4-2.2,2.1-3.1,2.7c-1.4,1-2.6,1.5-3.6,1.6c-0.5,0-1.3,0-2-0.4c0,0-0.1,0-0.1,0c0.7,0.6,1.6,1.3,3.1,1.3
			c1.7-0.1,3.2-0.9,5.5-3c1.1-1,2.1-2.1,3.1-3l1.7-1.8c1.1,0.3,2.2,0.4,3.3,0.3c1.6,0,3.1-0.8,3.1-1.7c0-0.7-0.5-1-0.9-1.2
			c-0.3-0.2-1-0.6-2-0.6c-1.2,0-2.5,0.5-3.8,1.6l-0.9,0.8c0,0-0.3-0.1-0.3-0.1l-2.4-0.7c0.7-0.7,1.3-1.2,1.9-1.7
			c1.3-1.2,2.8-1.7,3.6-1.7c0.6,0,1.7,0,2.2,0.3c0,0,0.1,0,0.1,0c-1.2-1-2.2-1.2-3.1-1.2c-0.8,0-2.2,0.3-3.8,1.5
			c-0.7,0.5-1.5,1.4-2.5,2.3c0,0-1.2-0.4-1.2-0.4l-0.3-0.1l-1.3-0.4c0,0,0.7-0.7,0.7-0.7c0.9-0.9,1.7-1.6,2.3-2.2
			c2.3-1.9,3.8-2.2,4.8-2.2c1.1,0,2,0.2,2.6,0.7c0,0,0,0,0,0c-1.3-1.2-2.2-1.5-3.9-1.6C277.2,26.2,275.5,27,273.8,28.4 M264.7,35.4
			c-0.8,0-1.1-0.4-1.1-0.9c0-0.1,0.1-1.9,4.3-2.1c0.5,0,1,0,1.8,0c0,0-0.5,0.4-0.5,0.4l-0.3,0.2C267.9,34,266.2,35.5,264.7,35.4
			 M281.8,33.9c1.2-0.8,2.2-1.3,2.8-1.2c0.4,0,0.8,0.1,0.8,0.6c0,0.5-0.4,0.9-1.3,1.2c-0.8,0.3-2,0.3-3.2,0.2
			C281.2,34.3,281.5,34.1,281.8,33.9">
   </path>
   <path class="st8" d="M283.6,17c0.2-0.4,0.6-0.5,0.9-0.4c0.4,0.2,0.5,0.6,0.4,0.9c-0.2,0.4-0.6,0.5-0.9,0.4
			C283.6,17.7,283.4,17.3,283.6,17 M284.7,17.5c0.2-0.3,0-0.6-0.2-0.8c-0.3-0.2-0.6-0.1-0.8,0.2c-0.2,0.3,0,0.6,0.2,0.8
			C284.2,17.9,284.6,17.8,284.7,17.5 M284.3,17.7l-0.1-0.1l0-0.4l-0.1-0.1l-0.2,0.3l-0.1-0.1l0.4-0.7l0.3,0.2
			c0.1,0.1,0.2,0.2,0.1,0.3c-0.1,0.1-0.2,0.1-0.3,0.1L284.3,17.7z M284.2,17.2c0.1,0,0.2,0.1,0.3,0c0-0.1,0-0.1-0.1-0.2l-0.2-0.1
			l-0.1,0.2L284.2,17.2z">
   </path>
   <path class="st9" d="M86.9,64.4c4.3,0.7,12.4,1.8,22.4,2c9.9,0.3,21.6-0.3,32.7-2.1c11-1.7,21.4-4.5,28.8-7.5
			c7.4-2.9,11.6-6.5,11.5-6.5c0,0-4.3,4.1-12.1,7.7c-7.8,3.7-18.7,7.2-30.3,9.5c-11.5,2.3-23.6,3.4-33.5,3.5
			c-9.8,0.1-17.5-0.8-20.2-1.3c-9.3-1.4-16-4-20.1-6.4c-4.1-2.5-5.5-4.7-5.1-5.1c0.5-0.5,2.5,0.5,6.7,1.9
			C71.8,61.3,78.2,63,86.9,64.4">
   </path>
   <polygon class="st10" points="131.2,33.1 137.5,19.9 137.7,19.9 144.7,33.1 151.9,33.1 142.6,16.1 136.5,16.1 128,33.1 		">
   </polygon>
   <path class="st10" d="M31.1,25.7l10-0.1c-0.1,2.4-1.4,3.7-2.1,4.3c-1.7,1.3-4,1.4-5.1,1.4c-1.7,0-3.1-0.2-4.5-1.1
			c-0.9-0.6-2-1.5-2.5-2.3l-0.5-0.7l-3.3,1.9c1,1.1,2.4,2.2,4,3.1c2.4,1.2,4.6,1.5,7.3,1.5c2.9,0,7.3-0.4,10.5-2.9
			c2.2-1.7,3.3-4.1,3.3-6.1c0-2.1-1-4.4-3.3-6.1c-2.8-2.1-6.8-2.9-10.5-2.9c-2.4,0-4.5,0.2-6.7,1.1c-1.8,0.6-3.3,1.5-4.7,2.8
			l3.3,1.9l0.8-0.9c0.6-0.7,1.7-1.4,2.7-1.8c1.3-0.6,2.7-0.8,4.1-0.8c2.9,0,4.5,1,5.5,1.9c0.6,0.6,1.4,1.7,1.6,3.4l-10-0.2V25.7z">
   </path>
   <path class="st10" d="M163.4,17.7c1.6,0,3.5,0.4,4.9,2.2c1.1,1.5,1.3,3.2,1.3,4.7c0,1.5-0.2,3.2-1.3,4.7c-1.4,1.9-3.3,2.2-4.9,2.2
			c-1.6,0-3.5-0.4-4.9-2.2c-1.1-1.5-1.3-3.2-1.3-4.7c0-1.5,0.2-3.2,1.3-4.7C159.9,18,161.8,17.7,163.4,17.7 M163.4,33.6
			c3,0,7.3-0.7,10.1-2.9c2.2-1.7,3.3-4.1,3.3-6.1c0-2-1.1-4.4-3.3-6.1c-2.8-2.2-7.1-2.9-10.1-2.9c-3,0-7.3,0.7-10.1,2.9
			c-2.2,1.7-3.3,4.1-3.3,6.1c0,2.1,1,4.5,3.3,6.1C156.2,32.9,160.4,33.6,163.4,33.6">
   </path>
   <path class="st10" d="M108.9,20.4c0.6-0.2,1.3-0.3,2.1-0.3h0.8v8.9H111c-0.7,0-1.5-0.1-2.1-0.3c-0.6-0.2-1.1-0.4-1.5-0.8
			c-0.8-0.6-1.4-1.7-1.4-3.4c0-1.7,0.6-2.7,1.4-3.3C107.8,20.8,108.3,20.5,108.9,20.4 M120.6,31.1c3.6-0.2,5.5-1.1,6.5-1.8
			c1.9-1.2,2.8-2.9,2.8-4.8c0-2.5-1.5-4-2.8-4.8c-1.7-1.2-4.1-1.6-6.5-1.8c-0.6-0.1-1.3-0.1-1.9-0.1H118v-2.3h-6.5v2.3h-0.7
			c-0.6,0-1.3,0-1.9,0.1c-2.4,0.2-4.8,0.6-6.5,1.8c-1.2,0.8-2.8,2.3-2.8,4.8c0,1.9,0.9,3.6,2.8,4.8c1,0.6,2.9,1.5,6.5,1.8
			c0.6,0,1.2,0.1,1.9,0.1h0.7v2.5h6.5v-2.5h0.7C119.4,31.1,120,31.1,120.6,31.1 M120.6,20.4c0.6,0.2,1.1,0.4,1.5,0.8
			c0.8,0.6,1.4,1.7,1.4,3.3c0,1.7-0.6,2.7-1.4,3.4c-0.4,0.4-0.9,0.6-1.5,0.8c-0.6,0.2-1.3,0.3-2.1,0.3h-0.7V20h0.7
			C119.3,20,120,20.2,120.6,20.4">
   </path>
   <path class="st10" d="M84.8,17.7c1.6,0,3.5,0.4,4.9,2.2c1.1,1.5,1.3,3.2,1.3,4.7c0,1.5-0.2,3.2-1.3,4.7c-1.4,1.9-3.3,2.2-4.9,2.2
			c-1.6,0-3.5-0.4-4.9-2.2c-1.2-1.5-1.3-3.2-1.3-4.7c0-1.5,0.2-3.2,1.3-4.7C81.3,18,83.1,17.7,84.8,17.7 M84.8,33.6
			c3,0,7.3-0.7,10.1-2.9c2.2-1.7,3.3-4.1,3.3-6.1c0-2-1-4.4-3.3-6.1c-2.8-2.2-7.1-2.9-10.1-2.9c-3,0-7.3,0.7-10.1,2.9
			c-2.2,1.7-3.3,4.1-3.3,6.1c0,2.1,1,4.5,3.3,6.1C77.5,32.9,81.7,33.6,84.8,33.6">
   </path>
   <path class="st10" d="M60.3,26.9h1.2c3.1,0,5.3-0.4,6.8-1.3c1.9-1.2,2.4-2.9,2.4-4.2c0-1.3-0.4-2.9-2.4-4.1
			c-1.5-0.9-3.6-1.2-7.1-1.2h-0.9H50.2v17.1h6.5v-6.3H60.3z M60.3,18.7c0.8,0,1.8,0.2,2.5,0.7c1,0.6,1.1,1.5,1.1,2.1
			c0,0.5-0.1,1.5-1.2,2.2c-0.7,0.5-1.6,0.6-2.5,0.7h-0.7h-3v-5.6h3C59.8,18.6,60.1,18.6,60.3,18.7">
   </path>
   <path class="st10" d="M10.2,20.1l3.2,5.8H7l3.1-5.9h0.1L10.2,20.1z M14.7,28.2l2.8,4.9h7.2l-9.8-17.1h-6L0,33.1h3.2l2.6-4.9H14.7z
			">
   </path>
   <polygon class="st10" points="175.8,18.6 182.8,18.6 182.8,33.1 189.2,33.1 189.2,18.6 196.2,18.6 196.2,16.1 175.8,16.1 		">
   </polygon>
   <path class="st10" d="M8.5,49.7l-1.8-0.8l7.6-1c0.1,0.2,0.3,0.4,0.4,0.7L8.5,49.7z M29,49.7l1.8-0.9l-7.6-1
			c-0.1,0.3-0.3,0.5-0.4,0.7L29,49.7z M27.9,49.9l-2.3,0.8l-3.3-1.1L22,49.5c0.1-0.1,0.2-0.2,0.3-0.3c0.1-0.1,0.2-0.3,0.4-0.4
			L27.9,49.9z M34,47.6l-2.1,1l-8.4-1c0.1-0.2,0.1-0.4,0.2-0.6L34,47.6z M34.7,47.3l2.8-1.9H22.6c0,0.7-0.1,1.2-0.3,1.7
			c-0.6,1.6-2,2.3-3.5,2.3c-1.4,0-2.9-0.8-3.5-2.3c-0.2-0.5-0.4-1.1-0.4-1.8H0l2.7,1.9l11.4-0.6c0.2,0.9,0.6,1.6,1.2,2.2
			c0.9,1,2.2,1.6,3.5,1.6c1.3,0,2.6-0.5,3.5-1.5c0.5-0.6,0.9-1.3,1.1-2.2L34.7,47.3z M22.3,52.1l0.3,0.6l-0.3,0.1l-0.8,0.4l-0.9-1.9
			c-0.6,0.2-1.2,0.3-1.8,0.4c-0.7,0-1.4-0.1-2-0.3l-0.8,1.8c-0.2,0-0.6,0-0.8-0.2c-0.1-0.1-0.2-0.2-0.3-0.4l0.3-0.5L16,51
			c-0.2-0.1-0.4-0.2-0.6-0.4l0.5-0.7c0.9,0.6,1.9,0.9,2.9,0.9c1,0,1.9-0.3,2.9-1l0.6,0.2l0.2,0.1c-0.1,0.1-0.2,0.1-0.2,0.2
			c-0.2,0.2-0.3,0.4-0.6,0.5L22.3,52.1z M22.3,42.5c0.6,0.7,1,1.6,1.2,2.7h-1c-0.1-0.3-0.2-0.6-0.3-0.9c-0.6-1.8-2-3.1-3.5-4.1
			c-0.2-0.1-0.4-0.3-0.6-0.4c0.2,0.1,0.4,0.1,0.6,0.2C20.2,40.5,21.4,41.3,22.3,42.5 M19.7,49.1c0.3,0,0.6-0.2,0.9-0.4l-1.5-3.2
			l1.6-0.8l-1.3-1.2l-0.5,0.3l-2.3,1.1l0.7,1.6l1.1-0.5L19.7,49.1z M15.6,49.5c-0.1-0.1-0.2-0.2-0.3-0.2c-0.2-0.2-0.3-0.3-0.4-0.5
			l-5.2,1l2.2,0.8L15.6,49.5z M14.2,47.6c-0.1-0.2-0.2-0.4-0.2-0.6L3.5,47.6l2.1,1.1L14.2,47.6z">
   </path>
   <path class="st11" d="M59.7,42.5c0.5,0,1.5,0,2,0.6c0.4,0.4,0.5,1,0.4,1.5c-0.1,0.9-0.6,1.8-1.4,2.4c-0.6,0.5-1.6,0.8-2.5,0.8
			h-1.9l-1.2,4h-1.2l2.9-9.3H59.7z M56.7,46.7h1.8c0.6,0,1.1-0.2,1.4-0.4c0.4-0.3,0.8-0.9,0.9-1.5c0.1-0.5-0.1-0.8-0.2-0.9
			c-0.2-0.2-0.6-0.3-1.1-0.3h-1.8L56.7,46.7z">
   </path>
   <path class="st11" d="M67.7,46c0.2,0.4,0.3,0.9,0.2,1.5c-0.1,1-0.6,2.6-1.8,3.5c-0.7,0.5-1.5,0.8-2.2,0.8c-1.2,0-1.6-0.6-1.7-0.8
			c-0.3-0.5-0.3-1.1-0.2-1.5c0.1-1.1,0.7-2.6,1.8-3.6c0.7-0.5,1.5-0.8,2.2-0.8C66.9,45.2,67.5,45.6,67.7,46 M66.5,48.3
			c0.2-0.5,0.4-1.3,0.1-1.8c-0.1-0.3-0.5-0.4-0.9-0.4c-0.5,0-1,0.2-1.3,0.5c-0.5,0.4-0.7,1.1-0.9,1.7l-0.2,0.6
			c-0.1,0.5-0.4,1.3-0.1,1.8c0.1,0.2,0.4,0.4,0.9,0.4c0.5,0,0.9-0.2,1.2-0.4c0.6-0.5,0.8-1.2,1-1.8L66.5,48.3z">
   </path>
   <path class="st11" d="M73.3,51.3c-0.2,0.1-0.5,0.3-0.9,0.4c-0.5,0.2-1,0.3-1.5,0.3c-0.8,0-1.3-0.3-1.6-0.6
			c-0.3-0.4-0.4-1.1-0.4-1.7c0.1-1.2,0.8-3,2.1-3.9c0.6-0.4,1.4-0.5,2-0.5c0.4,0,1,0.1,1.3,0.3c0.3,0.2,0.5,0.6,0.4,1
			c0,0.3-0.1,0.5-0.3,0.8l-1.1,0.1c0.2-0.4,0.3-0.8,0.1-1c-0.1-0.2-0.4-0.3-0.8-0.3c-0.3,0-0.6,0.1-0.9,0.3c-0.7,0.4-1,1.1-1.2,1.8
			l-0.3,0.8c-0.2,0.5-0.2,1.1,0,1.5c0.1,0.2,0.4,0.5,1.1,0.5c0.4,0,0.6,0,1-0.2c0.3-0.1,0.5-0.2,0.8-0.3L73.3,51.3z">
   </path>
   <path class="st11" d="M79.8,51.3c-0.2,0.1-0.5,0.3-0.9,0.4c-0.5,0.2-1,0.3-1.5,0.3c-0.8,0-1.3-0.3-1.6-0.6
			c-0.3-0.4-0.4-1.1-0.3-1.7c0.1-1.2,0.8-3,2.1-3.9c0.6-0.4,1.4-0.5,2-0.5c0.4,0,1,0.1,1.3,0.3c0.3,0.2,0.5,0.6,0.4,1
			c0,0.3-0.1,0.5-0.3,0.8l-1.1,0.1c0.2-0.4,0.3-0.8,0.1-1c-0.1-0.2-0.4-0.3-0.8-0.3c-0.3,0-0.6,0.1-0.9,0.3c-0.7,0.4-1,1.1-1.2,1.8
			l-0.3,0.8c-0.2,0.5-0.2,1.1,0,1.5c0.1,0.2,0.4,0.5,1.1,0.5c0.4,0,0.6,0,1-0.2c0.3-0.1,0.5-0.2,0.8-0.3L79.8,51.3z">
   </path>
   <polygon class="st11" points="86.8,51.8 85.7,51.8 87.3,46.7 82.8,51.8 81.4,51.8 83.4,45.3 84.5,45.3 83,50.4 87.5,45.3 
			88.8,45.3 		">
   </polygon>
   <path class="st11" d="M94.6,51.8h-1.1l1.6-5l-4.5,5h-1.3l2-6.5h1.1l-1.5,5l4.5-5h1.3L94.6,51.8z M96.4,42.6c0,0.1,0,0.2-0.1,0.4
			c-0.1,0.4-0.3,0.7-0.9,1c-0.5,0.2-0.8,0.3-1.3,0.3c-0.3,0-0.8,0-1.1-0.3c-0.1-0.1-0.3-0.3-0.3-0.8c0-0.2,0.1-0.5,0.3-0.7H94
			l-0.1,0.2c-0.1,0.2-0.1,0.4,0,0.6c0.1,0.2,0.3,0.2,0.5,0.2c0.2,0,0.4,0,0.6-0.2c0.3-0.2,0.3-0.4,0.4-0.6l0.1-0.2H96.4z">
   </path>
   <path class="st11" d="M101.6,51.3c-0.2,0.1-0.6,0.3-0.9,0.4c-0.5,0.2-1,0.3-1.5,0.3c-0.8,0-1.3-0.3-1.6-0.6
			c-0.3-0.4-0.4-1.1-0.3-1.7c0.1-1.2,0.8-3,2.1-3.9c0.6-0.4,1.4-0.5,2-0.5c0.4,0,1,0.1,1.3,0.3c0.3,0.2,0.5,0.6,0.4,1
			c0,0.3-0.1,0.5-0.3,0.8l-1.1,0.1c0.2-0.4,0.3-0.8,0.1-1c-0.1-0.2-0.4-0.3-0.8-0.3c-0.3,0-0.6,0.1-0.9,0.3c-0.7,0.4-1,1.1-1.2,1.8
			l-0.3,0.8c-0.2,0.5-0.2,1.1,0,1.5c0.1,0.2,0.4,0.5,1.1,0.5c0.4,0,0.6,0,1-0.2c0.3-0.1,0.5-0.2,0.8-0.3L101.6,51.3z">
   </path>
   <path class="st11" d="M107.3,51.8l-0.3-2c0-0.3-0.1-0.5-0.2-0.7c-0.2-0.2-0.4-0.2-0.6-0.2h-0.9l-0.9,3h-1.1l2-6.5h1.1l-0.8,2.6
			h0.8c0.2,0,0.5,0,0.8-0.2c0.2-0.2,0.4-0.4,0.5-0.6l0.5-0.7c0.3-0.4,0.5-0.8,1-1c0.2-0.1,0.4-0.1,0.5-0.1c0.2,0,0.4,0,0.5,0.1
			l-0.4,0.9c-0.1,0-0.4,0-0.5,0.1c-0.2,0.1-0.3,0.3-0.4,0.5l-0.4,0.6c-0.2,0.3-0.3,0.5-0.6,0.7c-0.2,0.1-0.4,0.3-0.6,0.3l0,0.1
			c0.2,0.1,0.4,0.2,0.6,0.4c0.2,0.3,0.2,0.7,0.2,0.7l0.3,2.4H107.3z">
   </path>
   <polygon class="st11" points="115.3,51.8 114.2,51.8 115.8,46.7 111.3,51.8 109.9,51.8 111.9,45.3 113,45.3 111.5,50.4 116,45.3 
			117.3,45.3 		">
   </polygon>
   <path class="st11" d="M119.3,49c-0.1,0.5-0.2,1.1,0,1.4c0.2,0.3,0.6,0.5,1.3,0.5c0.4,0,0.7-0.1,1-0.2c0.3-0.1,0.5-0.2,0.8-0.3
			l0.1,0.8c-0.2,0.1-0.6,0.3-0.9,0.4c-0.5,0.2-1,0.3-1.5,0.3c-1.2,0-1.7-0.6-1.9-0.9c-0.6-1.1,0.1-3.8,1.5-4.9
			c0.6-0.6,1.4-0.8,2.1-0.8c0.9,0,1.4,0.4,1.6,0.8c0.4,0.7,0.1,1.6-0.2,2.6l-0.1,0.3h-3.8L119.3,49z M122.3,48l0.1-0.3
			c0.1-0.4,0.2-0.9,0.1-1.3c-0.2-0.3-0.5-0.4-0.7-0.4c-0.5,0-0.8,0.1-1.1,0.4c-0.3,0.3-0.6,0.7-0.8,1.4l0,0.1H122.3z">
   </path>
   <path class="st11" d="M134.4,51L134.4,51c-0.3,0.2-0.6,0.5-0.9,0.7c-0.4,0.2-0.7,0.3-1.2,0.3c-0.4,0-0.9,0-1.2-0.3
			c-0.2-0.2-0.5-0.6-0.4-1.2c0.1-0.6,0.4-1.4,1.2-1.9c0.4-0.3,1.1-0.5,2.3-0.5h1l0.3-0.8c0.1-0.2,0.2-0.6-0.1-0.9
			c-0.1-0.1-0.3-0.2-0.8-0.2c-0.2,0-0.6,0-1,0.2c-0.3,0.2-0.5,0.4-0.6,0.8l-1-0.1c0-0.5,0.3-1,0.9-1.4c0.7-0.4,1.6-0.4,2-0.4
			c0.7,0,1.4,0.2,1.6,0.6c0.1,0.2,0.2,0.5,0.1,0.9c0,0.3-0.1,0.6-0.2,0.9l-1.3,4.2h-1L134.4,51z M134.9,48.8h-1
			c-0.6,0-1.1,0.1-1.4,0.3c-0.4,0.3-0.6,0.7-0.7,1.1c0,0.3,0,0.4,0.1,0.6c0.2,0.3,0.5,0.3,0.7,0.3c0.4,0,0.6-0.1,1-0.3
			c0.3-0.1,0.5-0.3,0.7-0.6L134.9,48.8z">
   </path>
   <path class="st11" d="M139.3,45.3h2.8c0.5,0,1,0,1.3,0.5c0.1,0.2,0.2,0.5,0.2,0.9c0,0.4-0.3,0.8-0.6,1.2c-0.3,0.3-0.6,0.4-0.8,0.5
			l0,0c0.3,0.1,0.5,0.3,0.6,0.4c0.1,0.2,0.2,0.4,0.1,0.8c-0.1,0.4-0.3,1.1-1,1.6c-0.6,0.4-1.2,0.5-1.8,0.5h-2.8L139.3,45.3z
			 M138.6,50.9h1.5c0.4,0,0.7-0.1,0.9-0.3c0.3-0.2,0.5-0.6,0.6-1c0-0.2,0-0.4-0.2-0.6c-0.2-0.2-0.5-0.2-0.6-0.2h-1.6L138.6,50.9z
			 M139.5,48.1h1.4c0.2,0,0.6,0,0.9-0.2c0.3-0.2,0.5-0.6,0.5-0.9c0-0.3-0.1-0.5-0.2-0.5c-0.2-0.1-0.4-0.2-0.6-0.2h-1.5L139.5,48.1z">
   </path>
   <polygon class="st11" points="149.4,51.8 148.3,51.8 149.9,46.7 145.4,51.8 144.1,51.8 146.1,45.3 147.2,45.3 145.7,50.4 
			150.1,45.3 151.4,45.3 		">
   </polygon>
   <path class="st11" d="M155.5,51L155.5,51c-0.3,0.2-0.6,0.5-0.9,0.7c-0.4,0.2-0.7,0.3-1.1,0.3c-0.4,0-0.9,0-1.2-0.3
			c-0.2-0.2-0.5-0.6-0.4-1.2c0.1-0.6,0.4-1.4,1.2-1.9c0.4-0.3,1.1-0.5,2.3-0.5h1l0.3-0.8c0.1-0.2,0.2-0.6-0.1-0.9
			c-0.1-0.1-0.3-0.2-0.8-0.2c-0.2,0-0.6,0-1,0.2c-0.3,0.2-0.5,0.4-0.6,0.8l-1-0.1c0-0.5,0.3-1,0.9-1.4c0.7-0.4,1.6-0.4,2-0.4
			c0.7,0,1.3,0.2,1.6,0.6c0.1,0.2,0.2,0.5,0.1,0.9c0,0.3-0.1,0.6-0.2,0.9l-1.3,4.2h-1L155.5,51z M156.1,48.8h-1
			c-0.6,0-1.1,0.1-1.4,0.3c-0.4,0.3-0.6,0.7-0.7,1.1c0,0.3,0,0.4,0.1,0.6c0.2,0.3,0.5,0.3,0.7,0.3c0.4,0,0.6-0.1,1-0.3
			c0.3-0.1,0.5-0.3,0.7-0.6L156.1,48.8z">
   </path>
   <path class="st11" d="M162.7,51.8h-1.1l1.7-5.5h-1.8l-0.2,0.7c-0.3,0.9-0.6,1.7-0.9,2.5c-0.3,0.7-0.6,1.4-1.4,2
			c-0.4,0.3-1,0.4-1.4,0.5V51c0.3-0.1,0.7-0.2,1-0.4c0.4-0.3,0.7-0.8,0.9-1.3c0.3-0.6,0.8-2.1,1-2.9l0.3-1.1h3.8L162.7,51.8z">
   </path>
   <polygon class="st11" points="170.2,51.8 169.1,51.8 170.7,46.7 166.2,51.8 164.9,51.8 166.9,45.3 168,45.3 166.4,50.4 
			170.9,45.3 172.2,45.3 		">
   </polygon>
   <polygon class="st11" points="177.4,51.8 176.3,51.8 177.2,48.9 174.5,48.9 173.6,51.8 172.5,51.8 174.4,45.3 175.5,45.3 
			174.7,47.9 177.5,47.9 178.3,45.3 179.4,45.3 		">
   </polygon>
   <polygon class="st11" points="185,51.8 183.9,51.8 185.4,46.7 181,51.8 179.7,51.8 181.6,45.3 182.7,45.3 181.2,50.4 185.6,45.3 
			187,45.3 		">
   </polygon>
   <polygon class="st11" points="192.5,51.8 191.4,51.8 193,46.7 188.5,51.8 187.2,51.8 189.2,45.3 190.3,45.3 188.8,50.4 
			193.2,45.3 194.5,45.3 		">
   </polygon>
  </g>
 </g>
</svg>